<?xml version="1.0" encoding="UTF-8" standalone="no"?>
<!-- Created with Inkscape (http://www.inkscape.org/) -->

<svg
   version="1.1"
   id="svg2"
   width="42"
   height="53"
   viewBox="0 0 42 53"
   sodipodi:docname="default-4.svg"
   inkscape:version="1.2.2 (b0a8486541, 2022-12-01)"
   inkscape:export-filename="ingamescore-4.png"
   inkscape:export-xdpi="48"
   inkscape:export-ydpi="48"
   xml:space="preserve"
   xmlns:inkscape="http://www.inkscape.org/namespaces/inkscape"
   xmlns:sodipodi="http://sodipodi.sourceforge.net/DTD/sodipodi-0.dtd"
   xmlns="http://www.w3.org/2000/svg"
   xmlns:svg="http://www.w3.org/2000/svg"><defs
     id="defs6"><rect
       x="-115.20763"
       y="-32.788136"
       width="96.567797"
       height="83.09322"
       id="rect239" /><filter
       style="color-interpolation-filters:sRGB;"
       inkscape:label="Drop Shadow"
       id="filter695"
       x="-0.41752592"
       y="-0.30916049"
       width="1.8350518"
       height="1.618321"><feFlood
         flood-opacity="0.8"
         flood-color="rgb(0,0,0)"
         result="flood"
         id="feFlood685" /><feComposite
         in="flood"
         in2="SourceGraphic"
         operator="in"
         result="composite1"
         id="feComposite687" /><feGaussianBlur
         in="composite1"
         stdDeviation="1.5"
         result="blur"
         id="feGaussianBlur689" /><feOffset
         dx="0"
         dy="0"
         result="offset"
         id="feOffset691" /><feComposite
         in="SourceGraphic"
         in2="offset"
         operator="over"
         result="composite2"
         id="feComposite693" /></filter><rect
       x="-112.96186"
       y="-38.177966"
       width="87.584746"
       height="80.847458"
       id="rect239-7" /><filter
       style="color-interpolation-filters:sRGB;"
       inkscape:label="Drop Shadow"
       id="filter696"
       x="-0.37155987"
       y="-0.30543005"
       width="1.7431197"
       height="1.6108601"><feFlood
         flood-opacity="0.8"
         flood-color="rgb(0,0,0)"
         result="flood"
         id="feFlood686" /><feComposite
         in="flood"
         in2="SourceGraphic"
         operator="in"
         result="composite1"
         id="feComposite688" /><feGaussianBlur
         in="composite1"
         stdDeviation="1.5"
         result="blur"
         id="feGaussianBlur690" /><feOffset
         dx="0"
         dy="0"
         result="offset"
         id="feOffset692" /><feComposite
         in="SourceGraphic"
         in2="offset"
         operator="over"
         result="composite2"
         id="feComposite694" /></filter></defs><sodipodi:namedview
     id="namedview4"
     pagecolor="#505050"
     bordercolor="#eeeeee"
     borderopacity="1"
     inkscape:showpageshadow="0"
     inkscape:pageopacity="0"
     inkscape:pagecheckerboard="0"
     inkscape:deskcolor="#505050"
     showgrid="false"
     inkscape:zoom="13.828177"
     inkscape:cx="24.55132"
     inkscape:cy="35.290262"
     inkscape:window-width="2560"
     inkscape:window-height="1572"
     inkscape:window-x="0"
     inkscape:window-y="0"
     inkscape:window-maximized="1"
     inkscape:current-layer="g8" /><g
     inkscape:groupmode="layer"
     inkscape:label="Image"
     id="g8"><path
       d="m 31.69333,29.353 c 1.173333,0 2.097777,-0.01745 2.773332,0.693665 0.711111,0.711111 1.066666,1.653332 1.066666,2.826665 0,1.137777 -0.355555,2.062221 -1.066666,2.773332 -0.675555,0.711111 -1.599999,1.066666 -2.773332,1.066666 h -1.066666 c -1.315555,0 -1.973332,0.568888 -1.973332,1.706665 v 2.186666 c 0,1.173333 -0.355555,2.062221 -1.066666,2.666665 -0.711111,0.604444 -1.617777,0.906666 -2.719998,0.906666 -1.137777,0 -2.062221,-0.302222 -2.773332,-0.906666 C 21.382225,42.66888 21.02667,41.779992 21.02667,40.606659 v -2.186666 c 0,-1.137777 -0.657777,-1.706665 -1.973332,-1.706665 H 10.68001 c -1.24445,0 -2.25778,-0.337778 -3.04,-1.013333 -0.78222,-0.711111 -1.17333,-1.653332 -1.17333,-2.826665 0,-0.888889 0.30222,-1.83111 0.90666,-2.826665 L 18.52,11.06001 c 0.391114,-0.675555 0.906671,-1.208888 1.546671,-1.599999 0.675555,-0.426667 1.404443,-0.64 2.186665,-0.64 1.35111,0 2.364443,0.408889 3.039998,1.226666 0.711111,0.817777 1.066666,1.777777 1.066666,2.879998 0,0.924444 -0.231111,1.742221 -0.693333,2.453332 L 16.33334,29.353332 17.82667,29.353 c 1.848889,-4.11e-4 3.733333,0 3.733333,0 v -1.546334 c 0,-1.208888 0.284444,-2.133332 0.853333,-2.773331 0.604444,-0.64 1.457777,-0.96 2.559998,-0.96 1.137777,0 1.99111,0.32 2.559999,0.96 0.604444,0.639999 0.906666,1.564443 0.906666,2.773331 V 29.353 c 0,0 1.457777,0 2.559998,0 z"
       id="path263"
       sodipodi:nodetypes="scscssssssssssscscccscsccscscscscss"
       style="font-weight:bold;font-size:53.3333px;line-height:25.3333px;font-family:'Torus Pro';-inkscape-font-specification:'Torus Pro Bold';text-orientation:upright;white-space:pre;fill:#ffffff;fill-rule:evenodd;stroke-width:0.5;stroke-linejoin:round;filter:url(#filter696)" /></g></svg>
